<svg width="24" height="22" viewBox="0 0 24 22" fill="none" xmlns="http://www.w3.org/2000/svg">
<path fill-rule="evenodd" clip-rule="evenodd" d="M7.81873 0H16.4812C20.4674 0 23.7 3.07862 23.7 6.875V15.125C23.7 18.9214 20.4674 22 16.4812 22H7.81873C3.83253 22 0.599976 18.9214 0.599976 15.125V6.875C0.599976 3.07862 3.83253 0 7.81873 0ZM16.4812 19.9375C19.2677 19.9375 21.5343 17.7787 21.5343 15.125V6.875C21.5343 4.22125 19.2677 2.0625 16.4812 2.0625H7.81872C5.03229 2.0625 2.7656 4.22125 2.7656 6.875V15.125C2.7656 17.7787 5.03229 19.9375 7.81872 19.9375H16.4812Z" fill="white"/>
<path fill-rule="evenodd" clip-rule="evenodd" d="M6.375 11C6.375 7.96263 8.96076 5.5 12.15 5.5C15.3392 5.5 17.925 7.96263 17.925 11C17.925 14.0374 15.3392 16.5 12.15 16.5C8.96076 16.5 6.375 14.0374 6.375 11ZM8.54063 11C8.54063 12.8948 10.1605 14.4375 12.15 14.4375C14.1395 14.4375 15.7594 12.8948 15.7594 11C15.7594 9.10388 14.1395 7.5625 12.15 7.5625C10.1605 7.5625 8.54063 9.10388 8.54063 11Z" fill="white"/>
<ellipse cx="18.3581" cy="5.08737" rx="0.769519" ry="0.732875" fill="white"/>
</svg>
