<svg width="1196" height="360" viewBox="0 0 1196 360" fill="none" xmlns="http://www.w3.org/2000/svg">
<g opacity="0.08">
<mask id="mask0_150_324" style="mask-type:alpha" maskUnits="userSpaceOnUse" x="0" y="0" width="1196" height="360">
<rect width="1196" height="360" rx="30" fill="white"/>
</mask>
<g mask="url(#mask0_150_324)">
<path opacity="0.7" d="M-310.399 182.37C-306.377 179.868 -302.391 177.319 -298.406 174.864C-293.498 171.796 -288.553 168.727 -283.682 165.612C-264.641 153.574 -248.774 143.708 -233.755 134.503C-224.345 128.696 -213.939 124.164 -202.906 119.349C-185.525 111.796 -167.591 104.007 -153.938 90.695C-146.668 83.6141 -140.875 75.825 -136.188 66.8558C-130.358 55.7151 -127.48 44.6216 -124.38 32.8672C-120.579 18.3749 -116.668 3.36324 -106.741 -12.1204C-89.9512 -38.3672 -62.0538 -57.769 -35.7064 -61.4983C-32.6805 -61.9232 -29.1011 -62.3952 -25.6324 -62.6785C-0.502655 -64.7084 19.6085 -61.6872 39.0923 -58.7131C67.8015 -54.3702 95.2191 -50.3104 134.113 -63.8586H125.22C91.0123 -53.7565 65.735 -57.4858 39.3506 -61.4983C33.8893 -62.3008 28.391 -63.1505 22.7082 -63.8586H-38.1788C-64.7476 -59.2796 -91.501 -40.3499 -108.439 -13.8671C-118.586 1.99426 -122.572 17.2419 -126.446 31.9703C-129.472 43.5359 -132.351 54.4878 -137.997 65.298C-142.535 74.0312 -148.218 81.5842 -155.266 88.4764C-168.625 101.505 -186.411 109.2 -203.607 116.706C-214.198 121.332 -225.157 126.1 -234.715 131.953C-249.733 141.159 -265.601 151.072 -284.642 163.11C-289.513 166.178 -294.421 169.246 -299.365 172.362C-303.019 174.675 -306.709 176.941 -310.399 179.301V182.37Z" fill="url(#paint0_linear_150_324)"/>
<path opacity="0.7" d="M-310.402 209.089C-294.792 198.939 -278.814 189.64 -263.131 180.529L-253.463 174.911C-238.518 166.178 -222.503 157.067 -204.495 147.059C-195.27 141.914 -185.233 137.901 -174.568 133.653C-157.631 126.902 -140.139 119.916 -126.375 108.067C-119.253 101.93 -113.238 95.0853 -108.072 87.1546C-101.578 77.194 -97.74 67.1863 -93.6808 56.5648C-88.8468 43.9135 -83.8651 30.8846 -73.9018 17.4307C-56.4475 -6.12524 -29.6942 -23.8748 -4.12164 -28.8315C-1.09573 -29.398 2.29919 -30.0589 5.54651 -30.5309C29.643 -34.0242 49.0161 -33.8826 67.7988 -33.741C100.567 -33.5049 131.527 -33.3161 181.565 -52.7179C190.975 -56.4 200.09 -60.1765 208.872 -63.8586H201.861C195.034 -61.0263 188.134 -58.1939 180.938 -55.4087C131.195 -36.1013 100.419 -36.3373 67.7988 -36.5734C48.9792 -36.715 29.4954 -36.8566 5.28818 -33.3161C2.00397 -32.844 -1.42786 -32.1832 -4.45377 -31.5695C-30.4691 -26.5184 -57.7022 -8.48556 -75.4886 15.4953C-85.6733 29.2323 -90.7287 42.4973 -95.6366 55.2903C-99.6219 65.7701 -103.423 75.6362 -109.733 85.3135C-114.788 93.0554 -120.619 99.7115 -127.593 105.707C-141.099 117.319 -158.442 124.259 -175.232 130.962C-185.454 135.069 -196.045 139.27 -205.381 144.463C-223.389 154.471 -239.441 163.629 -254.386 172.315L-264.054 177.932C-279.441 186.854 -295.124 195.965 -310.438 205.926V209.089H-310.402Z" fill="url(#paint1_linear_150_324)"/>
<path opacity="0.7" d="M-310.402 238.215C-285.42 217.256 -257.08 202.15 -229.552 187.563L-223.241 184.211C-209.034 176.658 -193.315 168.586 -175.233 159.617C-166.192 155.132 -156.413 151.592 -146.081 147.862C-129.623 141.914 -112.649 135.777 -98.7737 125.439C-91.7625 120.247 -85.6 114.346 -79.9172 107.454C-72.6477 98.626 -67.8136 89.6568 -62.6843 80.1211C-56.8909 69.4052 -50.9498 58.3117 -41.0602 46.935C-22.9417 26.1642 2.66769 10.0196 27.5022 3.83558L28.7568 3.50513C31.4875 2.84424 34.1444 2.13615 36.7644 1.56966C60.8609 -3.62304 80.2709 -6.50262 99.0536 -9.33501C129.755 -13.914 158.76 -18.257 205.255 -31.8052L208.429 -32.7494C261.493 -48.2331 303.375 -60.4595 357.805 -42.1906C376.403 -35.9122 394.927 -24.9603 414.485 -13.3948C426.589 -6.21939 439.135 1.19202 451.681 7.37605C478.582 20.5466 505.114 26.0698 532.864 24.1343C573.455 21.3491 596.74 0.767159 621.39 -20.995C636.224 -34.1184 651.538 -47.6666 671.317 -57.7215C675.856 -60.0347 680.395 -61.8757 684.749 -63.2447C685.672 -63.5279 686.558 -63.7168 687.443 -64H678.845C676.114 -62.9143 673.347 -61.7341 670.542 -60.3179C650.505 -50.1685 635.08 -36.5259 620.172 -23.3081C595.781 -1.73478 572.754 18.6112 532.79 21.3491C505.373 23.2374 479.136 17.8087 452.493 4.7325C440.021 -1.45154 427.511 -8.81574 415.444 -15.9911C395.776 -27.6039 377.215 -38.603 358.395 -44.9758C303.449 -63.4335 261.345 -51.1127 207.986 -35.5345L204.812 -34.5904C158.428 -21.0422 129.46 -16.7464 98.8322 -12.1674C80.0126 -9.24059 60.5656 -6.36101 36.3954 -1.1211C33.7754 -0.554623 31.0816 0.10627 28.314 0.814369L27.0594 1.14481C1.85583 7.47047 -24.1595 23.8039 -42.5363 44.9051C-52.6103 56.4707 -58.6621 67.7058 -64.5294 78.5633C-69.5849 87.9574 -74.382 96.8322 -81.467 105.471C-87.0391 112.221 -93.054 117.981 -99.9176 123.079C-113.534 133.228 -130.398 139.318 -146.708 145.219C-156.635 148.806 -166.93 152.536 -176.045 157.068C-194.163 166.037 -209.883 174.109 -224.127 181.662L-230.4 185.014C-257.596 199.459 -285.568 214.329 -310.439 234.864V238.215H-310.402Z" fill="url(#paint2_linear_150_324)"/>
<path opacity="0.7" d="M-310.399 280.323C-301.838 268.616 -293.867 259.174 -285.564 250.96C-259.512 225.327 -227.593 210.08 -196.743 195.304L-193.053 193.557C-179.326 186.996 -163.938 180.009 -146.004 172.22C-137.111 168.349 -127.59 165.281 -117.553 162.071C-101.649 156.925 -85.154 151.638 -71.2054 142.858C-64.3786 138.562 -58.0316 133.605 -51.8322 127.752C-43.6402 120.01 -37.5883 111.985 -31.2044 103.488C-24.636 94.7545 -17.8462 85.6909 -8.215 76.4856C10.4201 58.5944 34.9594 44.0548 59.1297 36.5018L62.1187 35.5577C64.1113 34.944 66.0302 34.3303 67.986 33.7638C85.3665 28.6655 100.053 23.9449 114.26 19.3659C148.357 8.414 177.804 -1.07448 228.875 -10.799C280.611 -20.6179 323.379 -21.8925 376.554 2.32438C392.126 9.45254 407.698 19.4603 424.156 30.0817C437.662 38.7677 451.611 47.7369 465.67 55.1011C491.833 68.6021 517.406 74.4557 543.864 72.9923C585.156 70.6792 606.19 48.5394 628.441 25.0779C641.615 11.2464 655.195 -3.10436 673.682 -13.8674C677.926 -16.3221 682.206 -18.352 686.413 -19.8154C705.713 -26.6603 724.901 -27.4629 741.876 -28.1709C758.703 -28.879 774.607 -29.5399 787.633 -35.96C798.556 -41.3415 808.667 -46.9119 819.405 -52.7655C826.047 -56.4004 832.763 -60.0825 839.812 -63.8118H834.166C828.852 -60.9322 823.649 -58.0998 818.556 -55.3146C807.855 -49.461 797.744 -43.8907 786.858 -38.5564C774.164 -32.3251 758.444 -31.6642 741.802 -30.9561C724.717 -30.248 705.38 -29.4455 685.823 -22.5062C681.505 -20.9956 677.114 -18.9185 672.76 -16.4166C654.014 -5.46468 640.324 8.93327 627.039 22.9064C605.046 46.0375 584.308 67.894 543.753 70.16C517.59 71.6234 492.313 65.817 466.482 52.4576C452.46 45.1406 438.548 36.2186 425.116 27.5326C408.584 16.8639 392.975 6.85619 377.255 -0.366386C323.674 -24.7721 280.611 -23.5447 228.543 -13.6314C177.361 -3.90687 147.84 5.58162 113.707 16.5807C99.4996 21.1597 84.8498 25.8804 67.4694 30.9787C65.5505 31.5451 63.5578 32.1588 61.5652 32.8197L58.5762 33.7638C34.1476 41.4113 9.31308 56.1397 -9.54346 74.2197C-19.2854 83.5666 -26.149 92.6774 -32.7912 101.505C-39.1013 109.908 -45.0793 117.886 -53.1237 125.486C-59.2124 131.245 -65.4488 136.107 -72.1648 140.309C-85.892 148.947 -102.276 154.187 -118.07 159.286C-127.701 162.401 -137.701 165.611 -146.668 169.482C-164.639 177.271 -180.064 184.258 -193.791 190.819L-197.481 192.566C-228.478 207.389 -260.582 222.731 -286.856 248.6C-294.753 256.389 -302.318 265.264 -310.399 276.121V280.323Z" fill="url(#paint3_linear_150_324)"/>
<path opacity="0.7" d="M-310.4 342.163C-307.448 338.67 -304.422 334.751 -301.285 330.172C-296.488 323.186 -291.839 315.019 -286.894 306.333C-284.016 301.329 -281.063 296.137 -278.038 291.086C-269.44 276.876 -261.321 265.877 -252.428 256.483C-227.409 230.189 -195.416 216.594 -164.419 203.518L-162.795 202.857C-149.548 197.239 -134.492 191.338 -116.706 184.777C-107.923 181.519 -98.6608 178.923 -88.882 176.185C-73.4942 171.842 -57.6267 167.405 -43.6042 160.229C-36.9251 156.831 -30.3936 152.818 -23.6776 148.05C-14.1202 141.252 -6.51855 134.03 1.56281 126.382C8.53714 119.774 15.7329 112.976 24.663 105.989C43.4826 91.3081 66.9517 78.1847 90.7899 69.1211C92.2659 68.5546 93.7051 67.9881 95.1442 67.4217C96.5096 66.9024 97.8749 66.3359 99.2034 65.8167C117.506 58.8301 132.857 51.041 147.728 43.5352C177.766 28.2876 206.143 13.9368 252.565 10.1131C302.972 5.95895 344.338 16.5804 395.409 46.7453C407.513 53.9206 419.616 62.5122 432.421 71.623C447.735 82.4805 463.603 93.7628 479.839 102.685C505.227 116.564 529.803 122.748 555.044 121.709C596.927 119.868 615.636 96.2176 635.415 71.151C647.002 56.517 658.958 41.3637 676.227 29.7982C680.176 27.1546 684.235 25.0303 688.257 23.3781C704.678 16.722 721.173 15.3058 737.114 13.9368C755.085 12.379 772.06 10.9156 785.492 1.66317C795.492 -5.22896 804.643 -12.4515 814.312 -20.099C832.984 -34.8746 852.283 -50.075 879.258 -63.9065H873.538C848.925 -50.6887 830.77 -36.3852 813.168 -22.4593C803.536 -14.8591 794.422 -7.63649 784.459 -0.791561C771.432 8.17765 754.679 9.64104 736.967 11.1516C720.915 12.5678 704.309 13.984 687.63 20.7346C683.46 22.434 679.29 24.6527 675.231 27.3434C657.666 39.0978 645.562 54.3927 633.865 69.1683C614.381 93.81 595.967 117.13 554.933 118.924C530.025 120.01 505.744 113.873 480.651 100.136C464.525 91.2609 448.732 80.0258 433.454 69.1683C420.613 60.0575 408.435 51.4187 396.295 44.1961C344.891 13.8424 303.23 3.17377 252.417 7.32794C205.663 11.1989 177.139 25.644 146.954 40.9389C132.156 48.4447 116.842 56.2337 98.6129 63.1731C97.2476 63.6924 95.8822 64.2116 94.5169 64.7781C93.0778 65.3446 91.6386 65.9111 90.1626 66.4775C66.1399 75.6356 42.4862 88.8061 23.519 103.629C14.5151 110.663 7.2825 117.508 0.271271 124.164C-7.7363 131.764 -15.301 138.892 -24.7477 145.643C-31.39 150.363 -37.8108 154.281 -44.4161 157.68C-58.254 164.761 -74.0847 169.199 -89.3618 173.494C-99.1775 176.232 -108.44 178.876 -117.296 182.133C-135.119 188.695 -150.212 194.596 -163.459 200.213L-165.046 200.874C-196.265 214.092 -228.479 227.735 -253.793 254.359C-262.797 263.895 -271.063 275.035 -279.735 289.386C-282.798 294.437 -285.75 299.677 -288.628 304.681C-293.536 313.273 -298.149 321.439 -302.909 328.284C-305.455 332.013 -307.964 335.318 -310.4 338.292V342.163Z" fill="url(#paint4_linear_150_324)"/>
<path opacity="0.7" d="M-310.4 407.732C-308.628 405.75 -306.857 403.72 -305.086 401.737C-295.602 391.069 -287.41 381.816 -279.624 370.251C-273.388 360.998 -267.705 351.085 -261.838 339C-259.07 333.335 -256.376 327.387 -253.535 321.062C-250.029 313.225 -246.376 305.153 -242.464 297.411C-235.269 283.108 -227.667 271.542 -219.327 262.101C-195.489 235.146 -163.533 223.486 -132.646 212.204C-119.325 207.341 -104.565 202.526 -87.5163 197.381C-78.6969 194.69 -69.5454 192.519 -59.8404 190.205C-45.1906 186.712 -30.0243 183.124 -16.1125 177.649C-9.5072 175.052 -3.01257 172.078 4.33075 168.349C16.5081 162.165 26.8774 155.32 37.8739 148.097C44.0364 144.038 50.4203 139.836 57.3947 135.588C74.8858 124.872 96.1409 113.826 122.341 101.835C124.481 100.844 126.548 99.8524 128.614 98.8611L130.348 98.0114C147.692 89.7031 162.379 79.2705 176.586 69.1683C205.11 48.8696 232.122 29.6566 276.108 31.12C326.183 32.725 366.036 55.2896 414.119 91.2137C421.942 97.0673 429.765 103.299 438.031 109.907C455.928 124.211 474.452 139.034 493.825 150.363C518.401 164.667 542.092 171.229 566.041 170.473C608.403 169.151 624.751 144.038 642.02 117.413C652.094 101.93 662.464 85.9266 678.626 73.6057C682.243 70.8677 686.08 68.5546 689.992 66.7136C704.051 60.2463 718.849 58.3108 733.166 56.4226C751.949 53.9678 769.662 51.6547 783.204 39.3339C792.983 30.5063 801.729 21.1122 810.991 11.1989C830.106 -9.2415 849.885 -30.4372 879.111 -46.3929C910.071 -63.34 943.872 -66.1724 985.534 -55.3621C999.63 -51.68 1011.84 -44.5991 1023.62 -37.7542C1045.42 -25.0556 1066.05 -13.0652 1096.16 -23.309C1104.95 -26.283 1113.36 -31.2869 1123.51 -39.5008C1125.35 -41.0114 1127.2 -42.522 1129.04 -44.0798C1138.27 -51.7272 1147.31 -59.1859 1156.79 -63.9065H1151.22C1143.29 -59.1859 1135.65 -52.8602 1127.82 -46.3929C1125.98 -44.8823 1124.17 -43.3717 1122.33 -41.8611C1112.36 -33.7888 1104.13 -28.9266 1095.57 -25.9998C1066.2 -15.992 1045.94 -27.7936 1024.46 -40.3033C1012.58 -47.2426 1000.26 -54.3708 985.903 -58.1001C974.5 -61.0741 963.725 -62.9624 953.356 -63.9065H926.418C909.296 -62.2543 893.391 -57.2976 878.188 -48.9893C848.667 -32.8447 828.777 -11.5546 809.515 9.02737C800.29 18.8935 791.544 28.2404 781.839 37.0208C768.776 48.9168 751.322 51.1827 732.834 53.6374C718.369 55.5257 703.461 57.4611 689.143 64.07C685.084 65.9583 681.136 68.3186 677.409 71.151C660.951 83.7079 650.434 99.8997 640.249 115.572C623.275 141.677 607.259 166.366 565.893 167.641C542.166 168.349 518.918 161.882 494.637 147.767C475.411 136.532 456.961 121.756 439.101 107.5C430.835 100.891 423.012 94.6125 415.152 88.7589C366.774 52.5989 326.626 29.8926 276.108 28.2876C231.458 26.8242 204.298 46.226 175.479 66.7136C161.345 76.7685 146.732 87.1539 129.537 95.3678L127.802 96.2175C125.736 97.2089 123.669 98.2002 121.566 99.1916C95.2922 111.229 74.0002 122.275 56.3983 133.039C49.3871 137.334 43.0032 141.536 36.8038 145.595C25.881 152.771 15.5118 159.569 3.44513 165.753C-3.8244 169.482 -10.2821 172.409 -16.8136 174.958C-30.6147 180.387 -45.7073 183.974 -60.2832 187.467C-69.9883 189.781 -79.1767 191.952 -88.0698 194.643C-105.155 199.741 -119.952 204.603 -133.311 209.466C-164.418 220.795 -196.596 232.55 -220.84 259.929C-229.365 269.559 -237.04 281.314 -244.346 295.806C-248.332 303.642 -251.948 311.762 -255.491 319.598C-258.332 325.924 -260.989 331.872 -263.756 337.442C-269.587 349.385 -275.196 359.204 -281.358 368.362C-289.071 379.786 -297.189 388.944 -306.636 399.613C-307.927 401.076 -309.219 402.493 -310.51 403.956V407.732H-310.4Z" fill="url(#paint5_linear_150_324)"/>
<path opacity="0.7" d="M1396.69 36.4552C1393.29 35.5582 1389.79 34.8502 1386.02 34.2837C1377.02 32.9147 1367.76 32.3954 1358.79 31.9234C1345.8 31.2153 1332.33 30.5072 1319.49 27.1083C1286.06 18.2335 1258.38 -7.73001 1237.98 -29.3505C1235.95 -31.522 1233.92 -33.6935 1231.92 -35.8178C1222 -46.4865 1212.55 -56.5886 1200.74 -63.8584H1195.32C1196.43 -63.2919 1197.5 -62.7727 1198.6 -62.1118C1210.74 -54.9364 1220.34 -44.5982 1230.52 -33.6935C1232.51 -31.522 1234.54 -29.3505 1236.61 -27.2262C1257.2 -5.4169 1285.14 20.8298 1319.05 29.7991C1332.07 33.2451 1345.62 34.0004 1358.72 34.6613C1367.65 35.1334 1376.87 35.6055 1385.8 36.9744C1389.64 37.5409 1393.26 38.3434 1396.73 39.2403V36.4552H1396.69Z" fill="url(#paint6_linear_150_324)"/>
<path opacity="0.7" d="M1396.69 56.5179C1392 53.0719 1386.91 50.2867 1381.34 48.3984C1375.51 46.4158 1369.31 45.094 1362.41 44.3859C1353.25 43.4417 1343.84 43.6306 1334.73 43.7722C1322.52 43.961 1309.86 44.1971 1297.68 41.7423C1268.53 35.7943 1243.51 15.8732 1216.17 -7.63555L1214.14 -9.38218C1201.41 -20.2869 1189.38 -30.5778 1175.13 -37.3756C1146.87 -50.7822 1129.04 -34.0239 1110.15 -16.2743C1107.16 -13.4891 1104.17 -10.6568 1101.11 -7.91879C1091.81 0.295124 1083.95 5.15738 1075.65 7.89535C1047.75 17.1006 1029.04 3.26913 1009.26 -11.3649C997.675 -19.9564 985.682 -28.784 971.106 -33.7879C930.219 -47.8082 897.34 -45.4479 867.635 -26.3765C841.435 -9.4766 823.538 15.59 806.268 39.8541C797.818 51.7029 789.035 63.9765 779.552 74.8812C766.636 89.7512 748.739 92.914 729.846 96.2185C716.783 98.5316 703.314 100.892 690.989 107.359C687.04 109.436 683.313 111.985 679.918 114.959C664.494 128.413 655.527 145.596 646.818 162.166C632.389 189.687 618.81 215.745 577.112 216.406C554.676 216.831 532.387 209.986 508.881 195.446C484.637 180.387 462.164 159.428 440.43 139.129L434.23 133.323C392.089 94.1886 352.309 57.2732 300.057 49.2481C257.252 42.6392 231.273 67.0449 203.782 92.8196C190.498 105.282 176.734 118.169 160.755 127.564C158.283 129.027 155.774 130.49 153.191 131.859C133.301 142.622 111.049 152.677 89.536 162.402C69.8676 171.277 51.9706 179.16 31.9332 185.863C24.3685 188.365 17.5417 190.442 11.0471 192.236C-2.60629 196.013 -16.8502 198.751 -30.6512 201.394C-40.3932 203.283 -49.5815 205.029 -58.5854 207.153C-76.3718 211.26 -90.4312 214.943 -102.867 218.719C-130.321 226.98 -164.455 237.271 -187.629 265.501C-195.636 275.272 -202.537 287.31 -208.736 302.274C-213.386 313.462 -217.297 325.311 -221.061 336.735C-222.168 340.087 -223.239 343.391 -224.346 346.648C-229.143 360.857 -233.386 372.659 -238.626 383.989C-244.678 397.018 -251.726 408.866 -260.804 421.329C-276.044 442.194 -292.391 458.433 -310.362 470.376V473.492C-291.801 461.313 -274.937 444.743 -259.217 423.217C-250.029 410.613 -242.87 398.575 -236.744 385.405C-231.431 373.981 -227.15 362.085 -222.316 347.781C-221.209 344.524 -220.139 341.22 -219.032 337.868C-215.268 326.491 -211.393 314.69 -206.781 303.596C-200.692 288.868 -193.939 277.066 -186.116 267.53C-163.385 239.82 -129.546 229.624 -102.35 221.41C-89.9514 217.633 -75.929 213.951 -58.1795 209.891C-49.2125 207.814 -40.0241 206.021 -30.2822 204.132C-16.4442 201.489 -2.16348 198.704 11.5638 194.927C18.0584 193.133 24.922 191.056 32.5237 188.507C52.6717 181.804 70.6057 173.92 90.3109 164.998C111.861 155.274 134.15 145.171 154.076 134.408C156.659 132.992 159.205 131.529 161.715 130.065C177.914 120.53 191.752 107.548 205.111 95.0383C232.27 69.5941 257.916 45.566 299.836 51.9861C351.535 59.9168 391.13 96.6433 433.012 135.541L439.212 141.301C461.02 161.647 483.567 182.701 507.996 197.854C531.834 212.629 554.38 219.522 577.222 219.097C620.028 218.436 633.976 191.811 648.7 163.629C657.261 147.249 666.154 130.301 681.21 117.178C684.494 114.299 688.11 111.844 691.911 109.861C703.978 103.535 717.299 101.175 730.215 98.9093C749.477 95.5104 767.633 92.3476 781.065 76.8639C790.659 65.8648 799.441 53.5439 807.929 41.6479C825.088 17.5727 842.837 -7.3051 868.705 -23.9217C897.894 -42.6627 930.293 -44.9758 970.626 -31.1443C984.907 -26.2349 996.752 -17.5017 1008.23 -9.00453C1028.41 5.91269 1047.49 20.0274 1076.24 10.5389C1084.8 7.70652 1092.84 2.70265 1102.36 -5.70008C1105.46 -8.43806 1108.49 -11.2704 1111.48 -14.1028C1129.89 -31.3804 1147.24 -47.7138 1174.43 -34.8264C1188.45 -28.1703 1200.37 -17.9737 1212.99 -7.16348L1215.02 -5.41685C1242.59 18.2808 1267.83 38.3907 1297.39 44.3859C1309.75 46.8406 1322.48 46.6518 1334.77 46.4157C1343.84 46.2741 1353.18 46.0853 1362.26 47.0294C1369.05 47.7375 1375.14 49.0121 1380.82 50.9476C1386.61 52.9302 1391.85 55.9514 1396.72 59.6807V56.5179H1396.69Z" fill="url(#paint7_linear_150_324)"/>
<path opacity="0.7" d="M1396.69 95.4159C1386.5 77.383 1374.62 62.8907 1357.16 57.5092C1342.03 52.8357 1326.24 54.2991 1310.96 55.7153C1299.41 56.8011 1287.49 57.8868 1275.91 56.329C1250.33 52.8829 1227.09 36.7384 1204.61 21.113C1187.46 9.16983 1169.71 -3.15104 1150.78 -10.0904C1122.84 -20.287 1107.31 -3.43427 1090.85 14.4569C1080.52 25.6921 1069.81 37.2576 1055.64 41.7894C1029.15 50.2866 1011.95 34.5197 993.724 17.8558C982.506 7.56481 970.882 -3.05663 956.232 -9.38228C915.973 -26.8014 885.382 -25.0548 857.005 -3.6231C834.053 13.7016 818.259 42.1671 802.982 69.6884C794.864 84.3224 786.45 99.4756 777.077 112.788C764.42 130.726 745.527 134.975 727.26 139.035C711.356 142.575 694.861 146.257 682.204 158.861C667.813 173.212 660.359 191.339 653.126 208.9C640.764 239.018 630.063 265.028 588.143 265.217H587.737C536.444 265.217 490.908 221.126 453.122 177.98C450.317 174.77 447.476 171.513 444.634 168.255C408.434 126.666 371.016 83.6615 323.783 70.3021C282.601 58.6421 257.877 88.0989 231.714 119.302C219.316 134.078 206.474 149.373 191.75 159.9C142.967 194.738 70.2717 205.265 6.17429 214.518C-22.2027 218.625 -48.993 222.495 -72.6467 228.16C-105.599 235.996 -134.493 244.682 -154.641 271.307C-171.653 293.824 -178.369 324.839 -184.826 354.768C-188.074 369.827 -191.432 385.357 -196.081 399.708C-220.657 475.899 -262.503 496.906 -310.438 503.232V506.017C-261.728 499.691 -219.144 478.543 -194.052 400.747C-189.365 386.254 -185.97 370.582 -182.723 355.476C-176.302 325.83 -169.697 295.193 -153.054 273.195C-133.386 247.137 -104.825 238.593 -72.2408 230.851C-48.6609 225.233 -21.8706 221.362 6.43262 217.256C70.7514 207.956 143.631 197.382 192.821 162.307C207.802 151.639 220.718 136.202 233.227 121.332C258.984 90.648 283.302 61.6633 323.377 73.0401C370.057 86.2578 407.253 129.027 443.232 170.38C446.073 173.637 448.878 176.894 451.719 180.104C489.801 223.628 535.743 268.05 587.774 268.05H588.217C631.428 267.861 642.904 239.867 655.082 210.269C662.204 192.991 669.547 175.1 683.57 161.127C695.821 148.948 712.02 145.313 727.667 141.82C746.302 137.666 765.564 133.37 778.701 114.723C788.184 101.269 796.598 86.069 804.753 71.3406C819.883 44.0553 835.529 15.8731 858.075 -1.16837C885.862 -22.128 915.9 -23.8274 955.495 -6.69152C969.849 -0.460274 981.325 10.0195 992.433 20.1689C1011.07 37.2104 1028.71 53.355 1056.16 44.5746C1070.85 39.9012 1081.7 28.0524 1092.25 16.6756C1108.27 -0.696306 1123.36 -17.0769 1150.19 -7.3052C1168.86 -0.460274 1186.5 11.7662 1203.58 23.6622C1226.28 39.4291 1249.71 55.7153 1275.69 59.2086C1287.46 60.7664 1299.49 59.6807 1311.11 58.5949C1326.2 57.1787 1341.85 55.7625 1356.65 60.2943C1374.43 65.7703 1386.32 81.2068 1396.69 100.278V95.4159Z" fill="url(#paint8_linear_150_324)"/>
<path opacity="0.7" d="M1396.69 136.816C1392.92 131.482 1388.9 126.383 1384.29 121.71C1375.14 112.41 1365.76 106.132 1355.58 102.544C1340.49 97.1627 1324.95 96.5018 1309.97 95.8409C1298.2 95.3216 1287.13 94.8496 1276.2 92.2532C1252.77 86.7773 1232.29 70.6327 1210.59 53.544C1193.14 39.8069 1175.09 25.5978 1155.39 17.4783C1126.72 5.6767 1109.56 22.5766 1091.37 40.4206C1081.33 50.2867 1070.96 60.4833 1058.34 65.676C1053.14 67.8003 1048.52 69.1221 1044.17 69.7358C1027.71 72.0489 1016.23 63.7878 1002.99 54.2049C1000.07 52.0806 997.083 49.9563 993.909 47.832C985.828 42.4033 975.975 36.3136 964.204 32.4427C940.403 24.4648 921.583 22.3878 904.977 25.881C891.14 28.855 878.519 35.6528 866.416 46.6046C856.858 55.2434 848.076 66.5729 838.74 82.2927C833.057 91.9228 827.559 102.45 822.282 112.646C812.392 131.623 802.208 151.261 789.698 166.981C775.602 184.825 755.86 186.808 736.782 188.696C721.8 190.206 707.63 191.623 696.19 200.214C682.353 210.647 674.493 225.234 666.928 239.348C653.828 263.707 641.466 286.743 600.174 289.717C596.041 290.001 591.797 290.142 587.516 290.001C539.323 288.821 497.072 252.283 462.089 216.689C457.55 212.063 453.012 207.342 448.473 202.622L441.351 195.21C409.468 162.166 373.342 124.684 328.433 113.024C289.096 102.78 264.926 129.782 239.354 158.389C227.361 171.796 214.962 185.675 200.829 195.352C152.636 228.16 82.1176 238.215 19.9391 247.09C-6.03937 250.819 -30.6156 254.313 -52.5718 259.175C-78.255 264.934 -110.211 272.11 -131.43 297.837C-132.647 299.3 -133.791 300.811 -134.898 302.322C-149.216 322.148 -156.006 348.159 -162.574 373.32C-166.043 386.632 -169.622 400.369 -174.309 413.115C-186.228 445.593 -202.132 468.771 -222.982 483.877C-248.554 502.571 -278.444 507.292 -310.327 509.558V512.343C-278.924 510.077 -247.779 505.167 -221.911 486.285C-200.656 470.848 -184.457 447.292 -172.353 414.248C-167.63 401.361 -164.013 387.529 -160.508 374.17C-154.013 349.292 -147.297 323.564 -133.275 304.163C-132.205 302.652 -131.061 301.189 -129.917 299.772C-109.178 274.659 -77.5539 267.531 -52.1659 261.866C-30.2466 257.003 -5.74417 253.51 20.1974 249.781C82.5973 240.859 153.337 230.757 201.862 197.712C216.217 187.893 228.726 173.92 240.793 160.419C265.959 132.284 289.724 105.754 327.99 115.668C372.382 127.186 408.287 164.432 439.985 197.287L447.107 204.699C451.683 209.467 456.222 214.187 460.761 218.814C496.038 254.69 538.659 291.559 587.516 292.739C591.834 292.833 596.151 292.739 600.321 292.455C642.684 289.387 655.931 264.698 668.736 240.859C676.19 226.98 683.865 212.677 697.334 202.527C708.331 194.219 722.243 192.85 737.003 191.387C756.487 189.451 776.635 187.421 791.285 168.869C803.942 152.961 814.2 133.181 824.127 114.11C829.404 103.96 834.865 93.4334 840.511 83.8977C849.699 68.414 858.371 57.2733 867.707 48.8233C879.552 38.1075 891.877 31.4986 905.383 28.5718C921.694 25.1257 940.218 27.2028 963.724 35.0863C975.274 38.91 984.979 44.9052 992.95 50.2867C996.087 52.3638 999.039 54.5353 1001.95 56.6124C1015.53 66.4313 1027.3 74.8813 1044.43 72.4737C1048.93 71.8601 1053.69 70.4911 1059.04 68.2724C1072.03 62.938 1082.55 52.5998 1092.73 42.5449C1110.44 25.1257 1127.16 8.6507 1154.76 20.0274C1174.25 28.0525 1192.18 42.1672 1209.52 55.8571C1230.45 72.3321 1252.03 89.3736 1275.87 94.944C1286.94 97.5403 1298.64 98.0596 1309.97 98.5317C1324.84 99.1926 1340.23 99.8534 1355.06 105.141C1364.95 108.634 1374.07 114.771 1383 123.834C1388.16 129.074 1392.59 134.833 1396.76 140.97V136.816H1396.69Z" fill="url(#paint9_linear_150_324)"/>
<path opacity="0.7" d="M1396.69 177.744C1392.74 173.495 1388.42 169.388 1383.33 165.328C1372.96 157.067 1363.66 151.45 1353.99 147.532C1339.27 141.631 1324.36 138.846 1309.97 136.108C1298.16 133.889 1287.05 131.812 1276.46 128.177C1255.06 120.766 1236.31 104.102 1216.42 86.3993C1198.75 70.6796 1180.48 54.4406 1159.89 44.9521C1130.15 31.2623 1110.96 48.587 1090.7 66.9031C1081.37 75.3058 1071.74 84.039 1060.92 89.515C1055.54 92.2529 1051.22 94.094 1047.42 95.2741C1032.44 99.9476 1022.88 95.1797 1010.81 89.1845C1007.93 87.7683 1004.94 86.2577 1001.7 84.8415C993.468 81.1594 983.689 77.0053 972.102 74.2673C953.615 69.9243 932.064 66.3366 912.507 72.3318C899.296 76.3916 887.266 84.3695 875.753 96.7847C867.118 106.132 859.147 118.264 850.586 134.928C846.896 142.15 843.354 149.561 839.627 157.398C828.741 180.293 817.449 203.99 802.209 221.126C786.304 238.97 765.492 238.262 745.381 237.601C732.355 237.177 720.03 236.752 710.067 241.614C696.302 248.364 688.258 259.316 679.734 270.882C666.08 289.434 651.947 308.647 612.057 314.312C607.998 314.878 603.717 315.35 599.4 315.728C549.362 319.882 506.372 287.64 470.91 255.54C465.153 250.347 459.544 245.013 453.566 239.348L446.038 232.22C411.683 199.695 376.185 166.084 332.899 155.84C295.445 146.965 271.902 171.512 246.993 197.476C235.37 209.561 223.34 222.118 209.797 230.898C162.121 261.818 93.5951 271.401 33.1509 279.851C9.68176 283.108 -12.4958 286.224 -32.607 290.331C-57.1463 295.476 -87.6636 301.849 -108.328 324.461C-109.509 325.736 -110.653 327.105 -111.723 328.426C-125.967 346.129 -133.347 369.449 -140.506 391.966C-144.196 403.532 -147.96 415.522 -152.683 426.616C-164.824 455.412 -180.544 476.041 -200.729 489.636C-229.29 508.944 -264.494 512.106 -298.554 515.175C-302.465 515.505 -306.414 515.883 -310.362 516.261V519.046C-306.377 518.668 -302.355 518.291 -298.406 517.913C-264.125 514.844 -228.7 511.634 -199.733 492.091C-179.179 478.212 -163.163 457.205 -150.802 427.938C-146.041 416.702 -142.24 404.665 -138.55 393.005C-131.502 370.771 -124.196 347.734 -110.284 330.409C-109.214 329.087 -108.107 327.813 -106.963 326.538C-86.741 304.446 -56.5559 298.12 -32.2749 293.022C-12.2006 288.915 9.94006 285.799 33.3723 282.542C94.001 274.045 162.748 264.462 210.756 233.306C224.521 224.384 236.624 211.732 248.359 199.553C272.898 174.014 296.072 149.892 332.493 158.483C375.262 168.633 410.576 202.008 444.747 234.344L452.275 241.472C458.253 247.137 463.899 252.471 469.655 257.664C505.412 290.048 548.882 322.573 599.547 318.372C603.902 317.994 608.182 317.522 612.278 316.955C652.98 311.196 668.036 290.709 681.284 272.676C689.623 261.346 697.52 250.583 710.805 244.069C720.362 239.395 732.466 239.82 745.27 240.245C764.865 240.906 787.042 241.661 803.574 223.109C819.073 205.737 830.438 181.851 841.398 158.767C845.125 150.93 848.631 143.519 852.321 136.344C860.771 119.916 868.631 107.973 877.081 98.8146C888.336 86.6826 900.071 78.8935 912.949 74.9282C932.138 69.0274 953.393 72.6151 971.659 76.9109C983.099 79.6016 992.767 83.7086 1000.92 87.3435C1004.13 88.7597 1007.12 90.2703 1009.96 91.6865C1021.92 97.6345 1032.21 102.78 1047.86 97.8705C1051.77 96.6431 1056.16 94.8021 1061.66 92.0169C1072.73 86.3993 1082.47 77.5718 1091.88 69.0746C1111.7 51.1834 1130.41 34.2363 1159.12 47.4541C1179.41 56.8009 1197.57 72.9455 1215.13 88.5708C1235.17 106.368 1254.06 123.22 1275.84 130.726C1286.54 134.408 1297.72 136.533 1309.6 138.751C1323.92 141.442 1338.75 144.227 1353.29 150.081C1362.74 153.904 1371.93 159.475 1382.11 167.594C1387.72 172.079 1392.37 176.611 1396.61 181.331V177.744H1396.69Z" fill="url(#paint10_linear_150_324)"/>
<path opacity="0.7" d="M1396.69 218.152C1392.55 215.225 1387.98 212.251 1382.33 208.947L1378.97 206.964C1371.15 202.291 1362.29 197.051 1352.4 192.566C1339.05 186.571 1325.65 182.087 1312.73 177.696C1299.86 173.353 1287.72 169.246 1276.76 164.101C1257.31 154.99 1240.26 137.854 1222.22 119.774C1204.39 101.883 1185.94 83.4252 1164.5 72.4733C1133.14 56.4704 1110.44 75.7306 1088.49 94.3299C1080.48 101.128 1072.21 108.114 1063.61 113.401C1059.22 116.092 1054.72 118.83 1050.77 120.86C1036.57 128.13 1028.78 126.289 1016.97 123.503C1014.65 122.937 1012.21 122.37 1009.55 121.851C1007.49 121.426 1005.31 120.954 1003.02 120.435C996.307 118.972 988.669 117.319 980.071 116.139C959.96 113.401 938.741 111.324 920.069 118.83C907.265 123.976 895.862 133.228 885.124 147.059C875.271 159.805 867.817 175.43 862.467 187.657C860.326 192.472 858.223 197.476 856.046 202.574C844.606 229.529 832.798 257.381 814.753 275.366C796.635 293.446 773.498 289.103 753.091 285.28C742.39 283.297 732.279 281.409 724.087 283.014C709.4 285.941 700.692 294.06 690.544 303.454C676.632 316.389 660.838 331.07 623.974 338.906C619.767 339.803 615.524 340.653 611.317 341.455C558.991 351.369 513.529 321.487 479.764 294.343C472.864 288.82 466.037 282.919 458.804 276.735L457.07 275.272C453.896 272.534 450.76 269.796 447.623 267.105C414.006 237.885 379.282 207.672 337.362 198.75C301.79 191.15 278.8 213.243 254.482 236.657C243.264 247.467 231.641 258.608 218.725 266.539C171.639 295.429 105.291 304.493 46.7287 312.518C25.6212 315.397 5.65768 318.135 -12.6822 321.629C-36.0407 326.066 -65.0819 331.589 -85.2669 351.274C-86.4108 352.407 -87.5179 353.54 -88.6249 354.72C-102.795 370.346 -110.839 390.88 -118.589 410.754C-122.426 420.62 -126.412 430.77 -131.098 440.306C-143.497 465.466 -158.995 483.547 -178.479 495.584C-204.273 511.54 -235.381 515.458 -265.455 519.235C-280.4 521.123 -295.678 523.058 -310.438 526.504V529.337C-295.641 525.891 -280.29 523.908 -265.271 522.02C-235.012 518.196 -203.72 514.278 -177.557 498.086C-157.704 485.812 -141.91 467.402 -129.29 441.769C-124.53 432.139 -120.544 421.895 -116.67 411.982C-108.662 391.447 -101.097 372.092 -87.2595 356.845C-86.2263 355.712 -85.1193 354.579 -84.0122 353.493C-64.2701 334.233 -35.5241 328.757 -12.387 324.367C5.95285 320.873 25.8795 318.183 46.9501 315.256C105.66 307.231 172.23 298.12 219.648 269.041C232.785 260.968 244.482 249.733 255.774 238.876C279.723 215.839 302.343 194.124 336.994 201.488C378.434 210.316 411.46 239.017 446.406 269.418C449.542 272.156 452.716 274.894 455.852 277.632L457.587 279.096C464.819 285.327 471.683 291.228 478.583 296.751C512.68 324.131 558.585 354.295 611.612 344.24C615.819 343.438 620.063 342.588 624.306 341.691C661.65 333.761 678.367 318.23 691.799 305.767C701.688 296.562 710.212 288.631 724.382 285.799C732.242 284.241 742.206 286.082 752.759 288.065C773.609 291.983 797.225 296.373 816.082 277.585C834.459 259.222 846.415 231.134 857.965 203.943C860.105 198.892 862.245 193.888 864.349 189.073C869.662 177.035 876.969 161.599 886.637 149.089C897.117 135.588 908.261 126.572 920.697 121.568C938.963 114.204 959.923 116.281 979.812 118.972C988.337 120.152 995.938 121.804 1002.62 123.267C1004.91 123.787 1007.08 124.259 1009.15 124.684C1011.81 125.203 1014.2 125.817 1016.53 126.336C1028.26 129.074 1036.71 131.104 1051.51 123.551C1055.5 121.521 1060.07 118.736 1064.5 115.998C1073.25 110.616 1081.59 103.535 1089.67 96.7374C1112.14 77.6661 1133.4 59.6804 1163.69 75.1169C1184.87 85.9272 1203.18 104.243 1220.89 121.993C1239.08 140.215 1256.28 157.445 1276.02 166.744C1287.09 171.937 1299.27 176.044 1312.18 180.387C1325.1 184.73 1338.42 189.215 1351.7 195.163C1361.48 199.553 1370.3 204.84 1378.05 209.466L1381.41 211.449C1387.46 215.037 1392.29 218.199 1396.69 221.315V218.152Z" fill="url(#paint11_linear_150_324)"/>
<path opacity="0.7" d="M1396.69 257.995C1392.4 256.626 1387.57 255.068 1381.33 252.566C1375.21 250.064 1368.53 246.618 1361.44 242.983C1358.01 241.237 1354.51 239.395 1350.82 237.554C1343.66 234.014 1336.46 230.568 1329.41 227.169C1310.11 217.917 1291.89 209.136 1277.01 200.073C1259.49 189.357 1244.14 172.032 1227.86 153.716C1209.93 133.512 1191.4 112.646 1169.04 100.042C1135.13 81.0181 1108.93 102.639 1083.58 123.551C1077.9 128.272 1071.99 133.134 1066.2 137.335C1063.39 139.365 1060.77 141.348 1058.38 143.189C1056.86 144.369 1055.39 145.455 1054.02 146.493C1038.93 157.728 1032.99 158.059 1018.52 158.861L1017.27 158.909C1011.69 159.239 1005.09 158.861 997.414 158.484C994.388 158.342 991.252 158.153 987.931 158.012L987.34 157.964C966.86 157.115 945.679 156.218 927.56 165.329C915.014 171.607 904.497 181.757 894.423 197.287C885.899 210.411 879.699 225.753 874.275 240.292L871.581 247.609C860.622 277.349 848.149 311.055 827.263 329.56C806.377 348.065 780.546 338.576 759.771 330.929C751.763 328.002 744.235 325.217 738.073 324.509C720.434 322.432 710.729 328.238 696.042 337.018C682.647 344.996 665.968 354.957 635.856 363.501C631.65 364.681 627.443 365.909 623.199 367.136C580.763 379.646 539.249 369.166 488.547 333.147C481.019 327.813 473.712 322.101 464.93 315.256C459.838 311.244 454.745 307.184 449.69 303.124C415.224 275.414 382.64 249.262 341.791 241.52C308.1 235.1 285.664 254.832 261.936 275.697C251.124 285.186 239.943 295.005 227.655 302.086C180.569 329.135 115.697 337.774 58.4264 345.374C40.3448 347.781 23.2596 350.047 7.24445 352.785C-16.1509 356.798 -42.646 361.33 -62.2036 377.946C-63.3476 378.89 -64.4177 379.882 -65.4879 380.92C-79.6579 394.421 -88.3297 412.218 -96.7432 429.401C-100.692 437.521 -104.825 445.923 -109.437 453.807C-122.094 475.333 -137.371 490.911 -156.191 501.391C-179.07 514.089 -206.008 518.48 -232.06 522.681C-255.898 526.552 -280.585 530.517 -302.061 540.95C-304.94 542.366 -307.744 543.971 -310.438 545.765V548.928C-307.486 546.945 -304.46 545.057 -301.286 543.546C-280.068 533.255 -255.529 529.29 -231.802 525.466C-205.602 521.218 -178.479 516.827 -155.342 503.94C-136.191 493.271 -120.618 477.41 -107.703 455.506C-103.016 447.481 -98.8834 439.031 -94.8981 430.865C-86.2263 413.115 -78.0342 396.31 -64.1963 383.139C-63.1631 382.148 -62.1298 381.203 -61.0228 380.259C-41.8711 364.02 -15.6343 359.536 7.53961 355.57C23.5179 352.832 40.6031 350.567 58.6847 348.159C116.103 340.559 181.16 331.92 228.578 304.682C241.05 297.507 252.305 287.593 263.228 278.058C286.623 257.523 308.69 238.121 341.569 244.352C381.939 252.047 414.338 278.01 448.62 305.579C453.675 309.639 458.731 313.698 463.86 317.758C472.679 324.65 480.023 330.362 487.55 335.744C538.732 372.093 580.763 382.667 623.716 370.016C627.923 368.788 632.129 367.561 636.336 366.381C666.669 357.742 683.459 347.734 696.965 339.709C711.356 331.118 720.84 325.453 737.888 327.483C743.829 328.191 751.283 330.929 759.18 333.808C780.361 341.597 806.746 351.275 828.517 332.062C849.92 313.132 862.467 279.096 873.574 249.026L876.268 241.756C881.655 227.358 887.744 212.252 896.12 199.317C905.936 184.164 916.195 174.251 928.372 168.161C946.085 159.286 967.045 160.183 987.303 160.986L987.894 161.033C991.178 161.175 994.351 161.316 997.34 161.505C1005.05 161.93 1011.7 162.26 1017.34 161.93L1018.6 161.883C1032.99 161.08 1039.52 160.75 1055.09 149.184C1056.49 148.146 1057.93 147.013 1059.48 145.832C1061.88 143.991 1064.46 142.009 1067.27 139.979C1073.14 135.683 1079.04 130.821 1084.76 126.1C1109.63 105.565 1135.31 84.3225 1168.16 102.78C1190.22 115.148 1208.64 135.919 1226.42 155.982C1242.81 174.44 1258.31 191.906 1276.09 202.763C1291.04 211.921 1309.3 220.655 1328.68 229.954C1335.72 233.353 1342.92 236.799 1350.08 240.34C1353.73 242.133 1357.24 243.975 1360.67 245.721C1367.79 249.403 1374.51 252.897 1380.74 255.398C1387.28 258.042 1392.33 259.647 1396.76 261.063V257.995H1396.69Z" fill="url(#paint12_linear_150_324)"/>
<path opacity="0.7" d="M1396.69 297.129C1392.22 297.648 1387.24 297.79 1380.34 296.185C1370.82 294.013 1360.19 288.49 1349.23 282.542C1324.99 269.466 1298.12 252.047 1277.31 235.997C1261.67 223.912 1247.98 206.54 1233.47 188.177C1215.54 165.423 1196.98 141.914 1173.62 127.564C1135.32 104.008 1102.77 132.048 1074.02 156.784L1068.82 161.269C1064.47 164.998 1060.7 168.728 1057.31 172.221L1054.58 175.006C1042.47 187.421 1038.41 191.623 1025.02 196.107C1017.49 198.657 1007.38 199.365 995.903 199.978L990.11 200.262C971.143 201.158 951.511 202.103 935.164 211.922C922.987 219.239 913.06 230.568 903.872 247.657C896.233 261.866 890.772 278.577 886.233 293.117C876.27 325.17 863.871 365.106 839.848 383.847C815.42 402.966 786.711 386.019 765.714 373.651C760.769 370.724 756.083 367.986 752.134 366.145C728.333 355.004 716.746 359.961 688.775 371.857C678.184 376.389 664.973 382.006 647.814 388.143C643.386 389.748 639.253 391.306 635.194 392.911C591.171 410.519 548.698 404.052 497.479 372.046C489.804 367.278 482.128 361.896 472.903 355.335C465.965 350.378 459.028 345.185 452.312 340.181C418.4 314.926 386.37 291.039 346.406 284.383C314.597 279.096 292.677 296.421 269.466 314.784C259.097 322.998 248.359 331.448 236.735 337.679C189.022 363.124 124.888 371.243 68.3181 378.466C53.9266 380.307 40.31 382.006 27.3208 383.989C5.10629 387.34 -20.0972 391.117 -38.9906 404.618C-40.0977 405.421 -41.1678 406.223 -42.201 407.026C-56.4449 418.402 -65.8916 433.461 -75.0062 448.001C-79.0284 454.421 -83.1614 461.03 -87.7002 467.308C-100.579 485.199 -115.671 498.228 -133.827 507.15C-153.495 516.828 -176.189 521.265 -198.109 525.561C-223.312 530.47 -249.327 535.568 -271.025 548.645C-287.631 558.652 -300.03 575.08 -310.399 595.19V600.241C-299.882 578.904 -287.225 561.485 -270.103 551.194C-248.737 538.306 -222.832 533.255 -197.776 528.346C-175.71 524.05 -152.942 519.566 -133.015 509.794C-114.527 500.73 -99.1765 487.465 -86.0765 469.244C-81.5008 462.871 -77.331 456.215 -73.2719 449.794C-63.862 434.783 -54.9688 420.574 -41.0202 409.433C-40.0239 408.631 -38.9906 407.828 -37.9205 407.073C-19.3961 393.808 4.47897 390.22 27.5791 386.774C40.5684 384.839 54.148 383.092 68.5395 381.251C125.257 374.028 189.575 365.862 237.584 340.276C249.392 333.997 260.167 325.453 270.61 317.192C293.489 299.112 315.076 282.023 346.147 287.169C385.705 293.73 417.551 317.475 451.279 342.589C457.995 347.593 464.932 352.785 471.906 357.742C481.132 364.351 488.881 369.732 496.593 374.548C548.329 406.931 591.319 413.398 635.895 395.602C639.955 393.997 644.087 392.439 648.479 390.834C665.712 384.65 678.922 379.032 689.55 374.5C717.816 362.463 728.407 357.978 751.47 368.741C755.345 370.535 759.957 373.273 764.865 376.153C786.305 388.757 815.641 406.034 841.029 386.207C865.642 366.947 878.189 326.586 888.3 294.108C892.765 279.71 898.189 263.188 905.68 249.215C914.647 232.551 924.315 221.504 936.124 214.423C952.065 204.841 971.475 203.896 990.257 203L996.051 202.716C1007.67 202.103 1017.9 201.395 1025.65 198.798C1039.48 194.172 1043.99 189.546 1056.02 177.178L1058.75 174.392C1062.1 170.946 1065.83 167.264 1070.11 163.582L1075.31 159.098C1103.54 134.786 1135.57 107.171 1172.73 130.066C1195.76 144.228 1214.17 167.595 1232 190.159C1246.61 208.664 1260.41 226.178 1276.24 238.404C1297.13 254.549 1324.14 272.015 1348.46 285.139C1359.53 291.134 1370.3 296.751 1380.01 298.97C1387.02 300.575 1392.26 300.481 1396.76 299.961V297.129H1396.69Z" fill="url(#paint13_linear_150_324)"/>
<path opacity="0.7" d="M1396.69 335.508C1392.11 338.199 1386.95 340.417 1379.31 339.851C1368.53 339.095 1356.72 332.864 1347.61 327.53C1327.09 315.539 1303.51 296.799 1277.53 271.968C1263.77 258.797 1251.7 241.614 1238.93 223.393C1221.04 197.854 1202.51 171.466 1178.12 155.085C1137.31 127.752 1097.68 159.145 1071.4 185.155C1067.71 188.79 1064.13 192.944 1060.55 197.854C1056.31 203.66 1053.32 208.57 1050.66 212.913C1045.5 221.41 1041.73 227.547 1032.73 233.259C1025.06 238.168 1014.28 240.293 1003.76 241.803C1000.59 242.275 997.343 242.7 994.095 243.125C976.198 245.438 957.674 247.846 942.618 258.42C930.773 266.728 921.4 279.285 913.134 297.932C906.75 312.329 902.506 328.144 898.005 345.799C888.299 384.036 876.011 421.707 852.284 438.04C823.243 458.056 790.511 429.26 770.954 412.029C769.219 410.519 767.596 409.055 766.046 407.781C734.163 380.401 721.322 385.971 659.66 412.737C655.453 414.578 651.209 416.561 647.04 418.638C601.43 441.581 557.997 439.173 506.225 410.849C497.184 405.893 488.254 400.228 480.689 395.318C472.017 389.654 463.419 383.706 455.116 377.899C421.684 354.674 390.096 332.723 350.797 327.199C320.833 322.951 299.356 337.963 276.662 353.824C266.773 360.763 256.551 367.891 245.591 373.226C196.033 397.443 131.272 405.09 74.1484 411.841C64.9232 412.926 55.8824 414.012 47.1368 415.098L46.1035 415.239C24.5533 417.977 2.15421 420.81 -15.8905 431.195C-16.9606 431.809 -17.9938 432.47 -19.0271 433.083C-33.5292 442.336 -43.3819 454.09 -53.788 466.553C-57.6995 471.226 -61.7218 476.041 -66.0023 480.715C-79.0653 494.924 -93.9734 505.451 -111.538 512.862C-127.664 519.66 -145.82 523.72 -163.348 527.685C-190.322 533.727 -218.22 540.006 -240.065 556.292C-269.512 578.196 -281.948 621.815 -295.085 668.03C-299.808 684.599 -304.642 701.546 -310.399 717.88V724.488C-303.757 706.408 -298.332 687.479 -293.055 668.974C-280.029 623.278 -267.741 580.084 -238.995 558.7C-217.445 542.697 -189.769 536.465 -162.979 530.423C-145.34 526.458 -127.111 522.351 -110.837 515.506C-93.014 508 -77.8845 497.284 -64.5632 482.839C-60.2457 478.118 -56.1866 473.303 -52.2751 468.63C-41.9796 456.309 -32.2377 444.696 -18.0308 435.585C-17.0344 434.972 -16.0012 434.311 -14.968 433.744C2.74463 423.548 24.9592 420.715 46.4726 417.977L47.5058 417.836C56.2145 416.75 65.2553 415.664 74.4806 414.578C131.751 407.828 196.66 400.133 246.514 375.775C257.584 370.346 267.88 363.171 277.843 356.231C300.242 340.559 321.386 325.783 350.723 329.937C389.58 335.461 420.983 357.27 454.268 380.354C462.607 386.113 471.205 392.108 479.914 397.773C487.516 402.682 496.483 408.394 505.56 413.398C557.886 442.005 601.799 444.413 647.999 421.187C652.132 419.11 656.339 417.128 660.508 415.334C721.359 388.945 734.016 383.469 765.013 410.047C766.526 411.321 768.149 412.785 769.884 414.295C789.847 431.856 823.28 461.266 853.465 440.448C877.857 423.642 890.366 385.405 900.219 346.601C904.684 329.088 908.854 313.415 915.164 299.253C923.208 281.079 932.323 268.9 943.799 260.827C958.449 250.536 976.752 248.176 994.427 245.863C997.712 245.438 1000.96 245.013 1004.13 244.541C1014.83 242.983 1025.83 240.812 1033.84 235.713C1043.28 229.671 1047.16 223.345 1052.51 214.565C1055.13 210.269 1058.12 205.407 1062.29 199.695C1065.79 194.927 1069.26 190.867 1072.88 187.28C1098.67 161.741 1137.53 130.868 1177.24 157.445C1201.3 173.59 1219.67 199.789 1237.46 225.139C1250.3 243.455 1262.44 260.78 1276.35 274.092C1302.44 299.064 1326.13 317.9 1346.8 329.985C1356.06 335.461 1368.13 341.786 1379.27 342.542C1386.87 343.061 1392.15 341.031 1396.76 338.482V335.508H1396.69Z" fill="url(#paint14_linear_150_324)"/>
<path opacity="0.7" d="M1396.69 372.989C1392 378.182 1386.69 382.903 1378.31 383.563C1369.31 384.272 1359.05 380.826 1346.02 372.564C1320.78 356.656 1296.32 329.654 1277.83 307.939C1265.98 294.013 1255.54 277.255 1244.51 259.458C1226.68 230.804 1208.27 201.205 1182.7 182.606C1144.25 154.66 1101.37 177.932 1074.06 209.089C1070.3 213.384 1066.98 218.105 1063.91 223.534C1059.3 231.748 1056.68 239.159 1054.36 245.674C1051 255.068 1048.12 263.14 1040.55 270.504C1032.88 277.916 1021.66 281.362 1011.7 283.722C1007.56 284.713 1003.32 285.563 999.04 286.46C981.918 289.953 964.205 293.588 950.22 304.918C938.633 314.265 929.85 328.002 922.581 348.159C916.972 363.69 913.466 381.062 910.108 397.867L909.997 398.481C903.429 431.006 891.658 476.135 864.941 492.28C841.14 506.678 813.39 492.657 780.105 449.464C749.072 409.197 730.842 407.119 671.69 437.332C667.52 439.456 663.276 441.816 659.069 444.365C611.91 472.925 567.554 474.53 515.192 449.7C507.59 446.112 499.177 441.533 488.697 435.349C478.364 429.212 468.216 422.65 458.401 416.278C425.337 394.799 394.119 374.547 355.372 370.015C327.143 366.758 306.109 379.409 283.858 392.863C274.522 398.481 264.854 404.334 254.669 408.819C200.129 432.8 128.393 440.07 70.7536 445.97L63.9268 446.678C44.3692 448.661 24.1843 450.691 7.24661 457.961C6.21338 458.386 5.18015 458.858 4.18381 459.33C-10.9826 466.505 -21.9792 475.758 -33.6399 485.529C-37.1086 488.409 -40.5774 491.383 -44.2675 494.31C-57.4412 504.837 -72.1648 512.815 -89.2131 518.763C-101.132 522.917 -114.195 526.08 -126.852 529.148C-156.373 536.323 -186.928 543.782 -209.142 564.128C-234.087 586.976 -243.017 626.346 -252.501 668.029C-258.516 694.465 -264.715 721.844 -275.343 746.25C-280.398 757.863 -286.229 768.059 -291.875 777.926L-293.72 781.183C-301.358 794.542 -306.746 805.683 -310.399 815.738V822.63C-310.362 822.583 -310.362 822.488 -310.362 822.441C-306.783 811.159 -300.952 798.555 -291.985 782.835L-290.14 779.578C-284.457 769.664 -278.553 759.374 -273.461 747.619C-262.686 722.93 -256.449 695.409 -250.434 668.784C-241.062 627.573 -232.242 588.628 -207.924 566.347C-186.116 546.378 -155.82 538.967 -126.52 531.839C-113.826 528.77 -100.726 525.56 -88.7334 521.406C-71.4637 515.411 -56.5556 507.291 -43.1973 496.623C-39.5072 493.696 -36.0016 490.722 -32.5329 487.842C-20.9828 478.165 -10.0601 469.007 4.88495 461.926C5.88126 461.454 6.8407 460.982 7.87393 460.557C24.5533 453.382 44.6275 451.352 64.0376 449.416L70.8643 448.708C128.615 442.855 200.535 435.538 255.297 411.415C265.592 406.883 275.297 401.03 284.707 395.365C306.7 382.1 327.475 369.59 355.114 372.753C393.455 377.191 424.488 397.348 457.367 418.685C467.183 425.058 477.368 431.667 487.737 437.804C498.254 444.035 506.741 448.614 514.38 452.249C567.333 477.41 612.242 475.71 659.955 446.82C664.125 444.318 668.332 441.958 672.428 439.833C733.979 408.394 749.477 413.681 778.482 451.352C812.505 495.49 841.066 509.699 865.79 494.735C893.318 478.118 905.348 432.186 912.027 399.142L912.138 398.528C915.496 381.864 918.965 364.587 924.5 349.292C931.585 329.654 940.109 316.294 951.327 307.231C964.943 296.232 982.435 292.644 999.335 289.151C1003.65 288.254 1007.93 287.404 1012.07 286.413C1022.29 284.005 1033.8 280.465 1041.81 272.676C1049.82 264.934 1052.81 256.531 1056.27 246.807C1058.56 240.387 1061.14 233.117 1065.61 225.139C1068.56 219.852 1071.77 215.273 1075.43 211.119C1102.14 180.623 1144.06 157.728 1181.55 184.966C1206.76 203.282 1225.06 232.692 1242.74 261.157C1253.84 279.001 1264.32 295.901 1276.28 309.969C1294.88 331.825 1319.49 358.969 1344.99 375.019C1358.38 383.516 1369.01 387.057 1378.38 386.301C1386.61 385.641 1391.96 381.439 1396.61 376.577V372.989H1396.69Z" fill="url(#paint15_linear_150_324)"/>
<path opacity="0.7" d="M1396.69 409.527C1391.74 417.836 1386.61 425.2 1377.35 427.277C1367.94 429.401 1357.2 426.191 1344.47 417.552C1319.42 400.653 1295.87 369.308 1278.12 343.911C1268.2 329.701 1259.38 313.651 1250.08 296.657C1232.44 264.509 1214.17 231.229 1187.31 210.08C1149.19 180.104 1102.84 198.893 1076.79 232.928C1073.1 237.696 1069.93 243.172 1067.38 249.167C1063.14 259.033 1061.33 268.191 1059.63 277.019C1057.38 288.537 1055.42 298.498 1048.52 307.656C1042.62 315.539 1033.99 320.874 1019.78 325.547C1014.91 327.152 1009.96 328.521 1004.76 329.985C988.228 334.564 971.106 339.284 957.932 351.369C946.603 361.707 938.411 376.672 932.101 398.387C927.636 413.965 925.053 431.006 922.544 447.481L921.99 451.116C914.056 503.043 899.111 535.096 877.598 546.426C839.811 566.3 804.128 509.038 794.091 491.053C766.23 441.014 744.754 425.908 683.719 461.832C679.586 464.287 675.343 467.025 671.136 469.999C621.873 504.837 577.923 510.36 524.158 488.409C516.04 485.105 507.073 480.809 496.704 475.239C484.822 468.866 473.235 461.785 462.054 454.987C429.285 435.019 398.362 416.183 359.985 412.737C333.379 410.377 311.681 421.282 290.648 431.856C281.976 436.199 273.046 440.684 263.783 444.271C206.218 466.505 135.515 473.822 87.3219 477.363L80.1631 477.882C63.2623 479.062 45.808 480.29 30.5309 484.491C29.5346 484.774 28.5383 485.058 27.542 485.341C10.1984 490.581 -3.19675 497.615 -17.3668 505.026L-22.3853 507.622C-35.3746 514.373 -49.8767 519.849 -66.8144 524.381C-73.2352 526.08 -79.8036 527.685 -86.7041 529.337C-120.358 537.409 -155.119 545.718 -178.072 571.729C-199.179 595.615 -205.12 631.917 -211.43 670.343C-216.154 699.186 -221.025 729.02 -232.722 755.078C-238.405 767.824 -245.416 778.54 -251.616 787.981C-262.132 804.031 -268.701 814.983 -273.572 824.566C-279.587 836.367 -282.391 846.706 -283.24 860.348C-284.015 872.764 -282.428 886.406 -280.62 902.22C-280.214 905.619 -279.808 909.112 -279.439 912.747C-277.041 934.698 -274.605 976.24 -285.306 1008.29C-289.255 1020.09 -294.901 1030.2 -301.764 1037.66C-304.532 1041.53 -307.447 1045.4 -310.362 1049.22V1053.23C-306.894 1048.7 -303.536 1044.22 -300.288 1039.64C-293.24 1032.04 -287.373 1021.61 -283.314 1009.38C-272.428 976.712 -274.863 934.557 -277.299 912.323C-277.705 908.688 -278.111 905.194 -278.48 901.796C-280.288 886.123 -281.838 872.622 -281.1 860.537C-280.288 847.414 -277.594 837.406 -271.764 826.029C-266.893 816.541 -260.398 805.683 -249.955 789.68C-243.719 780.145 -236.634 769.287 -230.877 756.353C-219.032 729.917 -214.087 699.894 -209.327 670.815C-203.127 632.861 -197.223 596.984 -176.669 573.711C-154.16 548.22 -119.657 539.959 -86.3351 531.981C-79.3977 530.329 -72.8662 528.771 -66.4085 527.024C-49.3601 522.492 -34.7104 516.969 -21.6104 510.124L-16.5919 507.528C-1.86829 499.833 10.8257 493.177 28.0217 487.984C28.9811 487.701 29.9774 487.418 30.9738 487.135C46.1033 482.981 63.4837 481.753 80.2738 480.573L87.4326 480.054C135.736 476.513 206.587 469.196 264.374 446.82C273.71 443.233 282.714 438.701 291.422 434.311C313.157 423.406 333.748 413.068 359.8 415.381C397.772 418.78 428.51 437.521 461.057 457.347C472.275 464.192 483.862 471.273 495.818 477.693C506.224 483.264 515.265 487.607 523.42 490.958C577.813 513.145 622.279 507.575 672.095 472.312C676.265 469.385 680.435 466.647 684.531 464.24C743.314 429.59 763.832 441.533 792.245 492.516C802.504 510.974 839.073 569.557 878.336 548.881C900.587 537.173 915.975 504.412 924.057 451.541L924.61 447.906C927.083 431.526 929.666 414.578 934.057 399.236C940.182 378.041 948.153 363.548 959.113 353.493C971.954 341.739 988.818 337.066 1005.17 332.534C1010.18 331.165 1015.39 329.701 1020.29 328.096C1034.94 323.281 1043.84 317.711 1050.07 309.45C1057.38 299.725 1059.48 288.962 1061.73 277.538C1063.43 268.852 1065.17 259.93 1069.3 250.347C1071.77 244.588 1074.83 239.348 1078.38 234.722C1103.21 202.291 1149.49 183.362 1186.24 212.299C1212.73 233.117 1230.85 266.162 1248.38 298.073C1257.75 315.115 1266.57 331.259 1276.57 345.563C1294.43 371.149 1318.16 402.682 1343.51 419.818C1356.69 428.74 1367.9 432.045 1377.79 429.826C1386.72 427.843 1392.11 421.187 1396.76 413.823V409.527H1396.69Z" fill="url(#paint16_linear_150_324)"/>
<path opacity="0.7" d="M1376.95 473.634C1386.65 470.188 1392.04 460.699 1396.69 450.55V444.979C1391.6 456.592 1386.58 467.308 1376.35 470.943C1366.54 474.436 1355.54 471.698 1342.85 462.493C1323.55 448.567 1301.85 420.762 1278.35 379.835C1270.37 365.909 1263.18 351.039 1255.58 335.272C1238.12 299.064 1220.12 261.583 1191.81 237.602C1153.88 205.454 1103.03 221.599 1079.37 256.862C1075.79 262.196 1072.84 268.239 1070.67 274.848C1066.98 286.083 1066.02 297.082 1065.09 307.703C1063.95 321.063 1062.84 333.667 1056.31 344.902C1050.7 354.579 1041.85 361.518 1027.6 367.514C1022.18 369.78 1016.31 371.809 1010.66 373.792C994.575 379.362 977.933 385.122 965.386 397.962C954.242 409.386 946.604 425.53 941.4 448.756C937.969 464.24 936.197 480.903 934.537 497.048L933.799 503.893C929.85 540.808 919.038 587.59 890.034 600.76C856.934 615.819 825.088 573.522 807.818 532.783C781.877 471.415 756.267 445.876 695.528 486.521C691.395 489.306 687.188 492.422 682.981 495.821C632.316 536.796 587.407 546.19 532.904 527.354C524.232 524.333 514.933 520.462 504.527 515.364C491.132 508.85 478.253 501.438 465.781 494.31C433.234 475.616 402.495 457.961 364.413 455.695C339.136 454.185 317.401 462.823 296.331 471.132C288.655 474.153 280.721 477.316 272.677 479.959C223.746 496.009 164.962 506.206 107.212 508.661C102.046 508.897 96.8058 509.038 91.6028 509.18C78.8718 509.558 65.735 509.935 53.6314 511.304L50.7531 511.635C32.6715 513.901 17.3206 516.78 -0.613373 521.312C-14.562 524.805 -29.3225 527.591 -44.5258 530.329C-83.8255 537.457 -124.159 547.087 -147.185 579.612C-164.934 604.679 -168.256 638.762 -171.761 674.874C-174.713 705.511 -177.813 737.234 -190.286 764.189C-195.452 775.377 -201.762 784.629 -209.622 795.062C-213.976 800.821 -218.035 806.061 -221.836 810.97C-226.522 817.013 -230.951 822.678 -234.899 828.106C-243.903 840.474 -249.069 851.096 -252.132 863.653C-255.97 879.325 -255.638 897.358 -254.9 917.61C-253.719 949.946 -253.756 983.651 -261.763 1010.94C-265.269 1022.69 -270.103 1032.89 -276.228 1041.34C-286.155 1057.58 -298 1073.25 -310.399 1088.59V1092.46C-297.373 1076.46 -284.937 1060.08 -274.568 1043.13C-268.295 1034.49 -263.313 1024.01 -259.734 1011.93C-251.578 984.171 -251.542 950.135 -252.759 917.515C-253.497 897.547 -253.792 879.75 -250.065 864.503C-247.113 852.323 -242.095 842.032 -233.349 829.995C-229.438 824.613 -225.01 818.948 -220.323 812.906C-216.485 807.996 -212.426 802.709 -208.072 796.95C-201.171 787.792 -194.013 777.643 -188.44 765.558C-175.71 738.131 -172.61 706.125 -169.621 675.205C-166.152 639.564 -162.905 605.906 -145.598 581.453C-123.052 549.636 -83.1613 540.1 -44.2306 533.019C-29.0273 530.281 -14.2299 527.496 -0.207458 524.003C17.6527 519.518 32.9667 516.639 50.9745 514.373L53.8528 514.042C65.8826 512.673 78.9825 512.296 91.6765 511.918C96.9165 511.776 102.156 511.635 107.323 511.399C165.258 508.944 224.189 498.7 273.267 482.603C281.349 479.959 289.319 476.796 296.995 473.728C318.84 465.089 339.394 456.923 364.303 458.386C401.979 460.652 432.533 478.213 464.895 496.765C477.405 503.94 490.32 511.352 503.752 517.913C514.269 523.012 523.605 526.93 532.351 529.951C587.518 549.022 632.906 539.487 684.162 498.087C688.332 494.735 692.502 491.619 696.561 488.928C755.714 449.322 780.622 474.2 805.936 534.058C823.575 575.788 856.38 618.935 890.772 603.357C920.81 589.714 931.917 541.941 935.939 504.271L936.677 497.426C938.375 481.375 940.109 464.806 943.504 449.511C948.559 426.899 955.976 411.227 966.751 400.133C978.929 387.624 995.387 381.959 1011.25 376.483C1016.94 374.5 1022.8 372.47 1028.3 370.204C1038.19 366.05 1050.52 359.63 1058.08 346.648C1064.95 334.847 1066.09 321.865 1067.27 308.128C1068.19 297.695 1069.12 286.885 1072.69 276.028C1074.76 269.702 1077.57 263.896 1081.03 258.797C1104.1 224.431 1153.66 208.664 1190.63 240.056C1218.53 263.707 1236.46 300.905 1253.77 336.877C1261.04 351.983 1268.57 367.655 1276.61 381.628C1300.3 422.887 1322.22 450.927 1341.78 465.042C1355.03 474.531 1366.54 477.363 1376.95 473.634Z" fill="url(#paint17_linear_150_324)"/>
<path opacity="0.7" d="M1340.15 509.935C1353.29 519.99 1365.43 522.492 1376.17 517.299C1386.76 512.201 1392.07 499.455 1396.69 486.238V479.393C1396.58 479.723 1396.47 480.053 1396.35 480.384C1391.26 495.301 1386.43 509.369 1375.43 514.656C1365.17 519.612 1353.99 517.252 1341.3 507.48C1313.77 486.426 1288.31 436.388 1278.64 415.806C1272.59 402.918 1266.79 389.087 1261.19 375.68C1244.06 334.705 1226.35 292.361 1196.42 265.076C1161.29 233.07 1105.72 240.623 1082.07 280.701C1078.6 286.602 1075.9 293.211 1074.13 300.433C1071.03 312.848 1070.92 325.547 1070.81 337.868C1070.66 353.682 1070.52 368.646 1064.28 382.053C1058.93 393.571 1050.11 401.974 1035.61 409.338C1029.74 412.312 1023.39 414.909 1017.23 417.458C1001.4 423.972 985.054 430.723 972.987 444.413C961.954 457.017 954.906 474.342 950.847 498.936C948.337 514.231 947.341 530.517 946.382 546.237C946.16 549.683 945.976 553.082 945.754 556.481C944.131 581.689 936.714 641.735 902.617 654.906C867.155 668.737 836.859 620.115 821.693 574.277C806.415 528.204 790.031 502.807 770.142 494.357C752.724 486.993 732.244 492.422 707.557 511.021C703.572 514.042 699.365 517.535 695.048 521.453C643.201 568.754 597.37 582.066 541.871 566.064C532.645 563.42 523.051 559.879 512.534 555.253C497.737 548.786 483.641 541.091 469.987 533.68C437.588 516.072 406.96 499.408 369.026 498.322C344.006 497.614 321.165 504.176 299.061 510.502C293.341 512.154 287.622 513.759 281.828 515.317C243.082 525.56 184.925 539.25 127.323 539.628C110.57 539.722 93.2629 538.825 76.9525 537.834L74.1481 537.692C68.2808 537.362 62.6349 536.937 57.0628 536.512C44.9223 535.615 33.446 534.813 21.3425 534.718C8.42703 534.624 -6.70248 534.577 -22.0534 535.946C-53.4194 538.684 -95.1915 549.824 -116.078 587.259C-130.801 613.6 -131.761 647.683 -132.683 680.633C-133.606 712.592 -134.528 745.684 -147.591 772.969C-153.459 785.29 -161.282 794.873 -167.407 801.812C-174.197 809.554 -180.987 816.304 -187.518 822.819C-190.434 825.699 -193.275 828.531 -196.006 831.363C-205.157 840.757 -214.493 851.52 -220.729 866.721C-227.851 883.951 -229.475 903.589 -230.139 922.236C-230.324 927.428 -230.471 932.715 -230.619 938.097C-231.32 963.588 -232.021 989.93 -237.999 1013.34C-240.951 1024.77 -245.121 1035.34 -250.435 1044.78C-265.823 1074.52 -287.779 1100.72 -310.215 1125.79V1129.47C-287.188 1103.79 -264.494 1076.98 -248.664 1046.34C-243.239 1036.71 -238.959 1025.85 -235.933 1014.19C-229.844 990.449 -229.143 963.872 -228.442 938.191C-228.294 932.81 -228.147 927.523 -227.962 922.377C-227.298 904.061 -225.711 884.754 -218.774 868.043C-212.685 853.314 -203.57 842.787 -194.603 833.582C-191.873 830.75 -189.031 827.917 -186.116 825.038C-179.548 818.476 -172.758 811.725 -165.894 803.936C-159.658 796.855 -151.724 787.084 -145.672 774.432C-132.277 746.486 -131.355 713.064 -130.432 680.728C-129.473 646.692 -128.55 614.544 -114.233 588.864C-93.8262 552.326 -52.7183 541.422 -21.832 538.731C-6.55487 537.409 8.50082 537.409 21.3793 537.504C33.446 537.598 44.8854 538.448 57.0259 539.297C62.598 539.722 68.2808 540.1 74.1481 540.478L76.9525 540.619C93.2629 541.611 110.57 542.508 127.433 542.413C185.184 542.035 243.525 528.298 282.345 518.055C288.138 516.544 293.895 514.892 299.614 513.24C322.604 506.631 344.302 500.399 369.062 501.108C406.591 502.146 436.998 518.716 469.249 536.229C482.94 543.688 497.073 551.382 511.944 557.897C522.535 562.523 532.203 566.111 541.502 568.754C597.665 584.946 644.013 571.445 696.413 523.672C700.694 519.801 704.863 516.355 708.775 513.381C732.908 495.254 752.798 489.872 769.588 497.001C788.85 505.167 804.829 530.045 819.847 575.363C835.383 622.239 866.564 671.9 903.392 657.549C938.743 643.86 946.382 582.491 948.042 556.717C948.264 553.318 948.485 549.872 948.67 546.426C949.629 530.8 950.625 514.609 953.098 499.455C957.083 475.474 963.873 458.622 974.537 446.443C986.272 433.13 1002.4 426.521 1018.01 420.054C1024.21 417.505 1030.59 414.861 1036.53 411.887C1046.61 406.742 1059.11 398.906 1066.27 383.422C1072.81 369.355 1072.95 354.06 1073.1 337.868C1073.21 325.783 1073.32 313.273 1076.31 301.283C1078.01 294.391 1080.59 288.065 1083.91 282.4C1106.9 243.455 1161.04 236.138 1195.28 267.342C1224.8 294.249 1242.4 336.31 1259.38 377.002C1264.99 390.409 1270.78 404.287 1276.87 417.222C1288.86 443.091 1313.22 489.353 1340.15 509.935Z" fill="url(#paint18_linear_150_324)"/>
<path opacity="0.7" d="M1276.91 453.146C1281.7 465.656 1321.08 564.931 1361.82 564.883C1366.32 564.883 1370.89 563.656 1375.4 560.965C1387.02 554.026 1392.07 537.362 1396.72 520.793V512.579C1396.24 514.231 1395.8 515.93 1395.32 517.583C1390.45 535.096 1385.84 551.666 1374.51 558.416C1339.34 579.47 1297.87 501.344 1278.86 451.871C1274.66 440.919 1270.6 429.543 1266.65 418.496C1250.01 371.951 1232.77 323.8 1201 292.691C1178.01 270.174 1142.59 263.329 1114.87 276.028C1095.09 285.091 1081.85 302.888 1077.57 326.161C1075.09 339.662 1075.79 353.965 1076.46 367.797C1077.34 386.207 1078.23 403.579 1072.25 419.346C1063.36 442.713 1044.1 451.871 1023.69 461.549C1008.15 468.913 992.139 476.56 980.589 491.005C959.445 517.488 958.67 557.85 957.932 596.889C957.858 601.043 957.785 605.15 957.674 609.257C957.157 629.603 952.545 697.014 915.164 709.24C877.82 721.467 848.889 666.66 835.494 615.961C820.475 559.124 801.619 527.118 777.891 518.102C757.669 510.407 733.831 520.226 706.967 547.275C644.53 610.154 592.241 623.655 520.395 595.426C504.269 589.1 489.029 581.217 474.305 573.569C442.238 557 411.942 541.28 374.524 541.28C374.155 541.28 373.786 541.28 373.417 541.28C335.889 541.611 299.578 549.069 264.485 556.339C211.163 567.338 155.995 578.762 97.3224 564.034C87.8019 561.626 78.1707 558.747 68.8347 555.914C46.5464 549.164 23.4831 542.177 0.198456 541.894C-29.7284 541.563 -68.0688 555.253 -85.1909 595.19C-97.0731 622.9 -95.7078 655.897 -94.4162 687.809C-93.0509 720.759 -91.6855 754.795 -105.191 782.033C-115.228 802.284 -131.908 815.172 -148.071 827.634C-163.311 839.436 -179.104 851.615 -189.658 870.12C-204.271 895.659 -206.301 928.042 -208.256 959.387C-209.437 978.317 -210.655 997.86 -214.603 1015.94C-227.445 1074.81 -267.261 1114.79 -305.712 1153.5C-307.299 1155.06 -308.812 1156.66 -310.399 1158.22V1161.76C-308.406 1159.73 -306.414 1157.7 -304.384 1155.67C-265.638 1116.68 -225.563 1076.41 -212.5 1016.7C-208.515 998.38 -207.26 978.695 -206.079 959.623C-204.05 927.24 -202.131 896.697 -187.924 871.772C-177.628 853.739 -162.056 841.702 -146.964 830.042C-130.616 817.39 -113.679 804.314 -103.383 783.543C-89.5084 755.55 -90.9106 721.042 -92.2759 687.667C-93.5675 656.133 -94.8959 623.514 -83.309 596.512C-66.8879 558.227 -30.3188 544.679 -1.09308 544.679C-0.687164 544.679 -0.244385 544.679 0.16153 544.679C23.2248 545.009 46.1404 551.949 68.3549 558.652C77.691 561.485 87.3591 564.411 96.9165 566.819C155.958 581.642 211.31 570.171 264.854 559.124C299.873 551.902 336.073 544.396 373.454 544.113C373.823 544.113 374.155 544.113 374.524 544.113C411.499 544.113 441.611 559.691 473.493 576.213C488.254 583.86 503.568 591.744 519.767 598.117C591.466 626.299 646.08 612.231 708.332 549.494C734.569 523.059 757.78 513.428 777.264 520.793C800.29 529.526 818.667 560.965 833.427 616.905C847.118 668.69 876.86 724.63 915.68 711.978C954.537 699.28 959.26 630.264 959.814 609.399C959.925 605.339 959.999 601.185 960.072 597.031C960.81 558.558 961.548 518.763 982.066 493.035C993.283 478.968 1009.11 471.462 1024.39 464.192C1045.2 454.279 1064.87 444.932 1074.13 420.573C1080.37 404.193 1079.45 385.594 1078.56 367.655C1077.9 354.012 1077.2 339.945 1079.6 326.822C1083.69 304.493 1096.42 287.404 1115.5 278.671C1142.59 266.256 1177.16 272.959 1199.6 294.957C1230.96 325.641 1248.05 373.462 1264.58 419.677C1268.6 430.723 1272.7 442.147 1276.91 453.146Z" fill="url(#paint19_linear_150_324)"/>
</g>
</g>
<defs>
<linearGradient id="paint0_linear_150_324" x1="-88.143" y1="-63.8586" x2="-88.143" y2="182.37" gradientUnits="userSpaceOnUse">
<stop stop-color="#6A35FF" stop-opacity="0.74"/>
<stop offset="1" stop-color="#6A35FF" stop-opacity="0.15"/>
</linearGradient>
<linearGradient id="paint1_linear_150_324" x1="-50.7832" y1="-63.8586" x2="-50.7832" y2="209.089" gradientUnits="userSpaceOnUse">
<stop stop-color="#6A35FF" stop-opacity="0.74"/>
<stop offset="1" stop-color="#6A35FF" stop-opacity="0.15"/>
</linearGradient>
<linearGradient id="paint2_linear_150_324" x1="188.502" y1="-64" x2="188.502" y2="238.215" gradientUnits="userSpaceOnUse">
<stop stop-color="#6A35FF" stop-opacity="0.74"/>
<stop offset="1" stop-color="#6A35FF" stop-opacity="0.15"/>
</linearGradient>
<linearGradient id="paint3_linear_150_324" x1="264.706" y1="-63.8118" x2="264.706" y2="280.323" gradientUnits="userSpaceOnUse">
<stop stop-color="#6A35FF" stop-opacity="0.74"/>
<stop offset="1" stop-color="#6A35FF" stop-opacity="0.15"/>
</linearGradient>
<linearGradient id="paint4_linear_150_324" x1="284.429" y1="-63.9065" x2="284.429" y2="342.163" gradientUnits="userSpaceOnUse">
<stop stop-color="#6A35FF" stop-opacity="0.74"/>
<stop offset="1" stop-color="#6A35FF" stop-opacity="0.15"/>
</linearGradient>
<linearGradient id="paint5_linear_150_324" x1="423.141" y1="-63.9065" x2="423.141" y2="407.733" gradientUnits="userSpaceOnUse">
<stop stop-color="#6A35FF" stop-opacity="0.74"/>
<stop offset="1" stop-color="#6A35FF" stop-opacity="0.15"/>
</linearGradient>
<linearGradient id="paint6_linear_150_324" x1="1296.02" y1="-63.8584" x2="1296.02" y2="39.2403" gradientUnits="userSpaceOnUse">
<stop stop-color="#6A35FF" stop-opacity="0.74"/>
<stop offset="1" stop-color="#6A35FF" stop-opacity="0.15"/>
</linearGradient>
<linearGradient id="paint7_linear_150_324" x1="543.181" y1="-42.7622" x2="543.181" y2="473.492" gradientUnits="userSpaceOnUse">
<stop stop-color="#6A35FF" stop-opacity="0.74"/>
<stop offset="1" stop-color="#6A35FF" stop-opacity="0.15"/>
</linearGradient>
<linearGradient id="paint8_linear_150_324" x1="543.124" y1="-21.2078" x2="543.124" y2="506.017" gradientUnits="userSpaceOnUse">
<stop stop-color="#6A35FF" stop-opacity="0.74"/>
<stop offset="1" stop-color="#6A35FF" stop-opacity="0.15"/>
</linearGradient>
<linearGradient id="paint9_linear_150_324" x1="543.216" y1="13.5522" x2="543.216" y2="512.343" gradientUnits="userSpaceOnUse">
<stop stop-color="#6A35FF" stop-opacity="0.74"/>
<stop offset="1" stop-color="#6A35FF" stop-opacity="0.15"/>
</linearGradient>
<linearGradient id="paint10_linear_150_324" x1="543.162" y1="40.0308" x2="543.162" y2="519.046" gradientUnits="userSpaceOnUse">
<stop stop-color="#6A35FF" stop-opacity="0.74"/>
<stop offset="1" stop-color="#6A35FF" stop-opacity="0.15"/>
</linearGradient>
<linearGradient id="paint11_linear_150_324" x1="543.124" y1="66.5107" x2="543.124" y2="529.337" gradientUnits="userSpaceOnUse">
<stop stop-color="#6A35FF" stop-opacity="0.74"/>
<stop offset="1" stop-color="#6A35FF" stop-opacity="0.15"/>
</linearGradient>
<linearGradient id="paint12_linear_150_324" x1="543.16" y1="92.7075" x2="543.16" y2="548.928" gradientUnits="userSpaceOnUse">
<stop stop-color="#6A35FF" stop-opacity="0.74"/>
<stop offset="1" stop-color="#6A35FF" stop-opacity="0.15"/>
</linearGradient>
<linearGradient id="paint13_linear_150_324" x1="543.181" y1="118.685" x2="543.181" y2="600.241" gradientUnits="userSpaceOnUse">
<stop stop-color="#6A35FF" stop-opacity="0.74"/>
<stop offset="1" stop-color="#6A35FF" stop-opacity="0.15"/>
</linearGradient>
<linearGradient id="paint14_linear_150_324" x1="543.181" y1="144.525" x2="543.181" y2="724.488" gradientUnits="userSpaceOnUse">
<stop stop-color="#6A35FF" stop-opacity="0.74"/>
<stop offset="1" stop-color="#6A35FF" stop-opacity="0.15"/>
</linearGradient>
<linearGradient id="paint15_linear_150_324" x1="543.144" y1="170.089" x2="543.144" y2="822.63" gradientUnits="userSpaceOnUse">
<stop stop-color="#6A35FF" stop-opacity="0.74"/>
<stop offset="1" stop-color="#6A35FF" stop-opacity="0.15"/>
</linearGradient>
<linearGradient id="paint16_linear_150_324" x1="543.199" y1="195.089" x2="543.199" y2="1053.23" gradientUnits="userSpaceOnUse">
<stop stop-color="#6A35FF" stop-opacity="0.74"/>
<stop offset="1" stop-color="#6A35FF" stop-opacity="0.15"/>
</linearGradient>
<linearGradient id="paint17_linear_150_324" x1="543.144" y1="220.271" x2="543.144" y2="1092.46" gradientUnits="userSpaceOnUse">
<stop stop-color="#6A35FF" stop-opacity="0.74"/>
<stop offset="1" stop-color="#6A35FF" stop-opacity="0.15"/>
</linearGradient>
<linearGradient id="paint18_linear_150_324" x1="543.236" y1="245.162" x2="543.236" y2="1129.47" gradientUnits="userSpaceOnUse">
<stop stop-color="#6A35FF" stop-opacity="0.74"/>
<stop offset="1" stop-color="#6A35FF" stop-opacity="0.15"/>
</linearGradient>
<linearGradient id="paint19_linear_150_324" x1="543.163" y1="269.7" x2="543.163" y2="1161.76" gradientUnits="userSpaceOnUse">
<stop stop-color="#6A35FF" stop-opacity="0.74"/>
<stop offset="1" stop-color="#6A35FF" stop-opacity="0.15"/>
</linearGradient>
</defs>
</svg>
