<svg width="80" height="72" viewBox="0 0 80 72" fill="none" xmlns="http://www.w3.org/2000/svg">
<path d="M64.7118 36.6514C73.527 36.6514 79.4674 43.6781 79.4674 54.0893C79.4674 63.4581 72.6399 71.2633 63.3924 71.2633C53.2634 71.2633 45.7789 61.8945 45.7789 47.5839C45.7789 15.0568 66.4749 2.04604 79.4674 0.482422V14.793C70.6579 16.614 60.7534 26.7614 60.3099 37.9577C60.7534 37.7003 62.5109 36.6514 64.7118 36.6514ZM19.7994 36.6514C28.6033 36.6514 34.5494 43.6781 34.5494 54.0893C34.5494 63.4581 27.7218 71.2633 18.4743 71.2633C8.34531 71.2633 0.86084 61.8945 0.86084 47.5839C0.86084 15.0568 21.5568 2.04604 34.5494 0.482422V14.793C25.7398 16.614 15.8354 26.7614 15.3918 37.9577C15.8354 37.7003 17.5928 36.6514 19.7994 36.6514Z" fill="#050505"/>
</svg>
