<svg width="24" height="18" viewBox="0 0 24 18" fill="none" xmlns="http://www.w3.org/2000/svg">
<path d="M23.6 2.11613C22.741 2.475 21.8256 2.71288 20.8713 2.82838C21.8531 2.27013 22.6024 1.39287 22.9546 0.3355C22.0393 0.85525 21.0287 1.22238 19.9516 1.42725C19.0825 0.545875 17.8438 0 16.4924 0C13.8706 0 11.7598 2.02675 11.7598 4.51137C11.7598 4.86888 11.7916 5.21263 11.8695 5.53988C7.93242 5.357 4.44866 3.55988 2.10834 0.82225C1.69976 1.49738 1.46009 2.27012 1.46009 3.102C1.46009 4.664 2.30469 6.04862 3.56364 6.85025C2.80278 6.8365 2.05636 6.62613 1.424 6.29475C1.424 6.3085 1.424 6.32638 1.424 6.34425C1.424 8.536 3.06554 10.3565 5.21817 10.7759C4.83269 10.8763 4.41256 10.9244 3.97655 10.9244C3.67336 10.9244 3.36729 10.9079 3.07998 10.8474C3.69357 12.6335 5.43474 13.9466 7.50507 13.9893C5.89385 15.1896 3.84806 15.9129 1.63334 15.9129C1.24497 15.9129 0.872487 15.8964 0.5 15.851C2.59777 17.1394 5.08391 17.875 7.76495 17.875C16.4794 17.875 21.2438 11 21.2438 5.04075C21.2438 4.84137 21.2366 4.64887 21.2265 4.45775C22.1664 3.8225 22.9561 3.02913 23.6 2.11613Z" fill="white"/>
</svg>
